<svg xmlns="http://www.w3.org/2000/svg" viewBox="0 0 512 512"><rect width="512" height="512" fill="#000000"></rect><g opacity="0.5"><g stroke="#1b4b86" stroke-width="10" fill="none"><rect x="64" y="64" width="384" height="384"></rect><path d="M64 192 H448 M64 320 H448 M192 64 V448 M320 64 V448"></path></g><rect x="78" y="78" width="100" height="100" fill="#1b4b86"></rect><rect x="334" y="334" width="100" height="100" fill="#1b4b86"></rect></g><path fill="#ffffff" transform="translate(34,191) scale(1.576)" d="M1 0.9 L45.4 0.9 L104.45 59.95 L153.1 59.95 L153.1 82.55 L90.05 82.55 L37 29.5 L23.5 29.5 L23.5 82.55 L1 82.55 Z M55.45 0.9 L153.1 0.9 L153.1 23.4 L77.95 23.4 Z"></path><path fill="#00f0ff" fill-rule="nonzero" transform="translate(295.6,191) scale(0.8125)" d="M18 0 L224 0 L224 30 L0 30 L0 18 Z M128 30 L224 30 L96 130 L0 130 Z M0 130 L224 130 L224 145 L206 160 L0 160 Z"></path></svg>