<svg xmlns="http://www.w3.org/2000/svg" width="1546" height="1000" viewBox="0 0 154.55 100">
<path d="M1 0.9 L45.4 0.9 L104.45 59.95 L153.1 59.95 L153.1 82.55 L90.05 82.55 L37 29.5 L23.5 29.5 L23.5 82.55 L1 82.55 Z M55.45 0.9 L153.1 0.9 L153.1 23.4 L77.95 23.4 Z M1.12 88.03 L4.09 88.03 L4.09 99.45 L1.12 99.45 Z M1.12 88.03 L15.4 88.03 L17.68 89.63 L17.68 89.97 L1.12 89.97 Z M14.71 89.63 L17.68 89.63 L17.68 99.45 L14.71 99.45 Z M23.23 88.03 L23.23 99.45 L20.26 99.45 L20.26 89.63 Z M27.95 88.03 L38.46 88.03 L38.46 89.97 L25.67 89.97 L25.67 89.63 Z M25.67 89.63 L28.64 89.63 L28.64 97.85 L25.67 97.85 Z M25.67 97.51 L42.69 97.51 L42.69 97.85 L40.4 99.45 L27.95 99.45 L25.67 97.85 Z M39.72 92.71 L42.69 92.71 L42.69 97.51 L39.72 97.51 Z M34.69 92.71 L42.69 92.71 L42.69 94.65 L34.69 94.65 Z M44.88 88.03 L47.85 88.03 L47.85 99.45 L44.88 99.45 Z M58.93 88.03 L61.9 88.03 L61.9 99.45 L58.93 99.45 Z M47.85 92.6 L58.93 92.6 L58.93 94.54 L47.85 94.54 Z M63.73 88.03 L79.03 88.03 L79.03 89.97 L63.73 89.97 Z M69.9 88.03 L72.87 88.03 L72.87 99.45 L69.9 99.45 Z M83.04 88.03 L96.06 88.03 L96.06 89.97 L80.76 89.97 L80.76 89.63 Z M80.76 89.63 L83.73 89.63 L83.73 97.85 L80.76 97.85 Z M80.76 97.51 L96.06 97.51 L96.06 99.45 L83.04 99.45 L80.76 97.85 Z M100.02 88.03 L112.24 88.03 L114.53 89.63 L114.53 97.85 L112.24 99.45 L100.02 99.45 L97.74 97.85 L97.74 89.63 Z M100.71 97.51 L111.56 97.51 L111.56 89.97 L100.71 89.97 Z M117.13 88.03 L120.1 88.03 L120.1 99.45 L117.13 99.45 Z M117.13 88.03 L130.38 88.03 L132.66 89.63 L132.66 89.97 L117.13 89.97 Z M129.69 89.63 L132.66 89.63 L132.66 93.05 L130.38 94.65 L129.69 94.65 Z M120.1 92.71 L130.38 92.71 L130.38 94.65 L120.1 94.65 Z M124.44 94.65 L127.18 94.65 L131.98 99.45 L129.24 99.45 Z M138.63 88.03 L151.08 88.03 L153.37 89.63 L153.37 89.97 L136.35 89.97 L136.35 89.63 Z M136.35 89.63 L139.32 89.63 L139.32 99.45 L136.35 99.45 Z M150.4 89.97 L153.37 89.97 L153.37 94.65 L150.4 94.65 Z M143.43 92.71 L153.37 92.71 L153.37 94.65 L143.43 94.65 Z" fill="#000000" fill-rule="nonzero"></path>
</svg>