<svg xmlns="http://www.w3.org/2000/svg" width="210.95" height="100" viewBox="0 0 210.95 100"><path d="M 0.00,96.10 L 0.00,100.00 L 11.51,99.99 L 18.89,93.10 L 18.89,92.83 L 19.55,93.97 L 21.93,93.97 L 22.81,92.44 L 24.00,92.36 L 24.45,89.73 L 25.69,88.11 L 29.20,86.99 L 29.28,85.78 L 57.21,85.78 L 58.12,84.94 L 58.12,83.61 L 57.26,82.60 L 61.06,82.60 L 60.98,80.91 L 60.16,80.91 L 60.16,77.70 L 60.83,77.71 L 61.06,76.55 L 124.73,76.55 L 126.08,76.12 L 126.91,78.00 L 127.29,77.88 L 128.11,79.82 L 161.80,69.29 L 161.27,67.24 L 161.64,67.13 L 161.00,64.95 L 162.38,64.50 L 174.03,64.51 L 174.03,65.53 L 174.26,65.76 L 207.31,65.76 L 210.95,61.69 L 210.95,16.53 L 207.30,12.47 L 162.72,12.47 L 162.49,12.70 L 162.49,13.73 L 124.92,13.73 L 100.14,19.97 L 61.06,20.24 L 60.83,19.21 L 60.16,19.21 L 60.16,16.00 L 61.06,16.00 L 61.06,14.31 L 24.40,14.31 L 57.21,14.21 L 58.12,13.37 L 58.12,12.04 L 57.21,11.20 L 29.27,11.20 L 29.20,10.16 L 25.69,9.03 L 24.45,7.41 L 24.00,4.79 L 22.87,4.71 L 22.87,4.10 L 19.49,0.00 L 11.25,0.00 L 11.23,4.10 L 18.61,4.10 L 12.05,4.15 L 12.05,87.08 L 12.91,89.17 L 12.04,91.25 L 8.83,91.85 L 4.63,91.85 L 3.19,96.09 L 0.00,96.10 Z M 62.91,46.88 L 62.91,40.62 L 66.62,37.50 L 99.92,37.50 L 103.62,40.62 L 103.62,46.88 L 99.92,50.00 L 66.62,50.00 L 62.91,46.88 Z M 151.73,37.50 L 159.14,31.25 L 181.34,31.25 L 185.04,34.38 L 185.04,53.12 L 181.34,56.25 L 155.44,56.25 L 151.73,53.12 L 151.73,37.50 Z M 48.11,59.38 L 48.11,40.62 L 51.81,37.50 L 55.51,40.62 L 55.51,59.38 L 51.81,62.50 L 48.11,59.38 Z M 114.73,62.50 L 111.03,59.38 L 111.03,40.62 L 114.73,37.50 L 122.13,37.50 L 125.83,40.62 L 125.83,59.38 L 122.13,62.50 L 114.73,62.50 Z M 99.92,62.50 L 70.32,62.50 L 62.91,56.25 L 66.62,53.12 L 99.92,53.12 L 103.62,56.25 L 103.62,59.38 L 99.92,62.50 Z" fill="#00f0ff" fill-rule="evenodd"></path></svg>