<svg xmlns="http://www.w3.org/2000/svg" viewBox="-6.0 -6.0 152.0 112.0" width="304" height="224">
  <rect x="-6" y="-6" width="152" height="112" fill="#0a0e14"></rect>
  <path d="M16.0 0.0 L20.0 0.0 L20.0 100.0 L0.0 100.0 L0.0 16.0 Z M0.0 0.0 L120.0 0.0 L120.0 20.0 L0.0 20.0 Z M0.0 40.0 L120.0 40.0 L120.0 60.0 L0.0 60.0 Z M0.0 80.0 L120.0 80.0 L120.0 100.0 L0.0 100.0 Z M120.0 0.0 L124.0 0.0 L140.0 16.0 L140.0 44.0 L124.0 60.0 L120.0 60.0 Z M120.0 40.0 L124.0 40.0 L140.0 56.0 L140.0 84.0 L124.0 100.0 L120.0 100.0 Z" fill="#eaf2ff"></path>
</svg>