<svg xmlns="http://www.w3.org/2000/svg" viewBox="-2.9 -6.0 145.8 112.0" width="292" height="224">
  <rect x="-2.9" y="-6" width="145.8" height="112" fill="#0a0e14"></rect>
  <path d="M22.7 1.1 L22.0 2.2 L20.6 3.0 L19.3 3.8 L13.1 7.9 L7.0 12.1 L5.1 14.1 L3.1 16.1 L3.2 49.4 L3.3 82.6 L5.4 85.0 L7.6 87.5 L8.8 87.5 L9.9 87.5 L9.9 88.3 L9.9 89.0 L13.9 91.5 L17.8 94.0 L22.0 97.0 L26.1 99.9 L79.2 100.0 L132.3 100.0 L134.4 99.2 L136.6 98.4 L136.6 91.5 L136.6 84.5 L135.6 83.5 L134.7 82.6 L83.2 82.6 L31.8 82.6 L30.9 81.3 L29.9 80.1 L30.0 49.2 L30.1 18.3 L30.6 17.5 L31.0 16.7 L82.5 16.7 L134.0 16.7 L135.4 15.1 L136.9 13.6 L136.6 7.0 L136.3 0.4 L79.9 0.2 L23.5 0.0 L22.8 1.0 Z" fill="#eaf2ff"></path>
</svg>