<svg xmlns="http://www.w3.org/2000/svg" viewBox="-10.6 -6.0 161.2 112.0" width="322" height="224">
  <rect x="-10.6" y="-6" width="161.2" height="112" fill="#0a0e14"></rect>
  <path d="M15.4 1.6 L14.5 2.8 L13.7 2.8 L12.9 2.8 L9.7 5.3 L6.5 7.7 L5.9 7.7 L5.3 7.7 L1.8 10.4 L-1.7 13.0 L-3.1 14.5 L-4.6 15.9 L-4.6 49.6 L-4.6 83.3 L-2.2 85.6 L0.2 87.9 L1.2 87.9 L2.1 87.9 L2.1 88.6 L2.1 89.4 L4.1 90.2 L5.9 91.0 L7.6 92.0 L9.3 93.0 L10.1 93.9 L10.8 94.9 L15.6 97.4 L20.4 100.0 L70.4 100.0 L120.5 100.0 L123.2 98.7 L125.8 97.3 L128.8 94.9 L131.9 92.5 L132.7 92.5 L133.6 92.5 L134.3 91.5 L135.0 90.3 L136.2 89.7 L137.4 89.1 L139.1 88.1 L140.9 87.1 L142.7 85.4 L144.6 83.6 L144.4 62.4 L144.1 41.2 L109.5 41.2 L74.9 41.2 L74.9 49.1 L74.9 57.0 L95.8 57.3 L116.7 57.5 L117.7 58.9 L118.7 60.3 L118.7 69.2 L118.7 78.2 L117.7 80.4 L116.8 82.5 L69.8 82.5 L22.9 82.5 L22.1 80.3 L21.3 78.2 L21.3 48.3 L21.3 18.4 L22.5 17.5 L23.6 16.5 L65.1 16.6 L106.6 16.7 L107.4 15.9 L108.2 15.1 L108.3 7.8 L108.5 0.4 L62.5 0.2 L16.6 0.0 L15.5 1.2 Z" fill="#eaf2ff"></path>
</svg>