<svg xmlns="http://www.w3.org/2000/svg" viewBox="-10.5 -6.0 161.0 112.0" width="322" height="224">
  <rect x="-10.5" y="-6" width="161" height="112" fill="#0a0e14"></rect>
  <path d="M-3.8 0.6 L-4.5 1.1 L-4.5 49.5 L-4.5 98.0 L-3.4 98.8 L-2.4 99.6 L8.1 99.7 L18.6 100.0 L20.3 99.1 L22.1 98.2 L22.1 79.1 L22.1 60.1 L22.6 58.8 L23.1 57.5 L70.4 57.5 L117.6 57.5 L118.1 58.9 L118.7 60.3 L118.6 79.0 L118.5 97.7 L120.0 98.8 L121.4 99.8 L131.5 99.8 L141.6 99.8 L143.0 98.9 L144.5 97.8 L144.3 49.2 L144.0 0.5 L132.1 0.3 L120.1 0.0 L119.3 0.8 L118.6 1.6 L118.6 19.8 L118.6 37.9 L117.9 39.0 L117.2 39.9 L69.8 39.8 L22.5 39.5 L22.3 20.8 L22.2 2.1 L22.1 1.1 L22.1 0.1 L9.3 0.1 L-3.5 0.1 L-4.0 0.7 Z" fill="#eaf2ff"></path>
</svg>