<svg xmlns="http://www.w3.org/2000/svg" viewBox="-8.5 -6.0 157.0 112.0" width="314" height="224">
  <rect x="-8.5" y="-6" width="157" height="112" fill="#0a0e14"></rect>
  <path d="M-1.9 0.8 L-2.4 1.6 L-2.4 50.0 L-2.5 98.4 L-1.7 99.2 L-0.9 100.0 L10.7 99.7 L22.3 99.5 L22.5 58.6 L22.7 17.7 L24.7 17.2 L26.5 16.7 L70.1 16.7 L113.8 16.7 L115.6 17.2 L117.5 17.7 L117.7 58.6 L118.0 99.5 L130.0 99.5 L142.0 99.5 L142.3 56.9 L142.5 14.4 L137.4 11.0 L132.3 7.6 L131.9 7.6 L131.4 7.6 L126.6 3.8 L121.8 0.0 L60.1 0.0 L-1.4 0.0 L-1.9 0.8 Z" fill="#eaf2ff"></path>
</svg>