<svg xmlns="http://www.w3.org/2000/svg" viewBox="-10.1 -6.0 160.2 112.0" width="320" height="224">
  <rect x="-10.1" y="-6" width="160.2" height="112" fill="#0a0e14"></rect>
  <path d="M12.9 2.0 L10.3 4.4 L8.7 5.5 L7.2 6.4 L5.3 7.2 L3.4 8.0 L3.4 8.8 L3.4 9.6 L2.5 9.6 L1.7 9.6 L-1.2 11.8 L-4.1 14.0 L-4.1 48.8 L-4.1 83.7 L-0.4 86.8 L3.1 89.9 L3.8 89.9 L4.6 89.9 L9.5 93.7 L14.3 97.5 L15.1 97.5 L15.9 97.5 L16.4 98.8 L16.9 100.0 L69.9 100.0 L123.0 100.0 L123.7 99.0 L124.4 98.0 L126.0 96.9 L127.7 95.9 L129.7 95.1 L131.5 94.4 L131.5 93.6 L131.5 92.8 L132.7 92.8 L133.8 92.8 L134.3 91.5 L134.8 90.3 L135.8 90.3 L136.7 90.3 L140.4 87.3 L144.1 84.3 L143.9 48.8 L143.6 13.3 L140.3 11.5 L137.1 9.6 L135.0 7.8 L132.9 5.9 L131.3 5.4 L129.8 4.9 L127.1 2.4 L124.5 0.0 L70.1 0.0 L15.7 0.0 L13.2 2.3 L117.2 17.3 L119.1 17.8 L119.1 49.5 L119.1 81.1 L117.5 82.0 L115.8 82.8 L70.1 82.8 L24.4 82.8 L22.8 81.4 L21.3 80.1 L21.3 48.9 L21.3 17.7 L22.8 17.4 L24.2 16.9 L69.7 16.9 L115.3 16.8 L117.2 17.3 Z" fill="#eaf2ff"></path>
</svg>