<svg xmlns="http://www.w3.org/2000/svg" viewBox="-11.3 -6.0 162.6 112.0" width="325" height="224">
  <rect x="-11.3" y="-6" width="162.6" height="112" fill="#0a0e14"></rect>
  <path d="M15.2 0.6 L14.8 1.8 L12.8 2.3 L10.9 2.8 L8.8 4.7 L6.6 6.6 L3.5 8.3 L0.4 9.9 L-0.1 11.0 L-0.5 12.0 L-1.3 12.0 L-2.1 12.0 L-3.7 13.9 L-5.2 15.8 L-5.3 56.9 L-5.3 98.1 L-4.3 99.0 L-3.4 100.0 L7.4 100.0 L18.1 100.0 L19.8 99.2 L21.4 98.3 L21.4 58.2 L21.4 18.1 L22.6 17.2 L23.6 16.3 L70.4 16.5 L117.3 16.7 L117.3 28.5 L117.3 40.3 L87.5 40.7 L57.8 41.2 L57.8 49.1 L57.8 57.1 L100.4 57.3 L143.1 57.5 L144.2 56.6 L145.3 55.8 L145.3 35.8 L145.3 15.8 L142.5 13.1 L139.6 10.4 L136.4 8.7 L133.2 7.0 L132.4 6.1 L131.6 5.2 L127.6 2.7 L123.6 0.0 L69.6 0.0 L15.5 0.0 L15.0 1.2 Z" fill="#eaf2ff"></path>
</svg>