<svg xmlns="http://www.w3.org/2000/svg" viewBox="-2.6 -6.0 145.2 112.0" width="290" height="224">
  <rect x="-2.6" y="-6" width="145.2" height="112" fill="#0a0e14"></rect>
  <path d="M4.0 0.5 L3.5 1.2 L3.5 48.6 L3.4 95.9 L3.9 96.5 L4.5 97.0 L15.8 97.3 L27.3 97.6 L28.5 96.7 L29.6 95.7 L29.6 75.9 L29.6 56.1 L47.3 56.1 L64.8 56.1 L69.7 60.7 L74.4 65.2 L77.9 68.2 L81.3 71.1 L85.2 74.3 L89.1 77.5 L98.9 87.4 L108.9 97.2 L110.9 98.5 L113.0 100.0 L124.6 100.0 L136.1 100.0 L136.1 99.0 L136.1 98.0 L131.8 94.3 L127.6 90.6 L119.1 82.7 L110.6 74.9 L105.3 69.9 L100.0 64.8 L96.5 62.0 L93.0 59.1 L93.0 57.6 L93.0 56.1 L104.8 56.1 L116.6 56.1 L120.6 53.0 L124.6 50.0 L124.6 49.4 L124.6 48.7 L126.1 48.7 L127.5 48.7 L130.1 46.3 L132.7 43.9 L133.8 43.9 L134.9 43.9 L135.8 42.7 L136.6 41.6 L136.4 27.6 L136.2 13.6 L134.5 12.7 L132.9 11.8 L130.0 9.5 L127.0 7.3 L126.4 7.3 L125.8 7.3 L122.8 5.0 L119.9 2.7 L118.5 2.1 L117.0 1.6 L117.0 0.8 L117.0 0.0 L60.6 0.0 L4.2 0.0 L3.7 0.8 L110.9 18.1 L112.1 19.9 L112.1 28.3 L112.1 36.7 L110.5 38.4 L108.9 40.0 L70.3 40.0 L31.8 40.0 L30.5 39.5 L29.2 39.0 L29.2 28.2 L29.2 17.4 L29.8 16.9 L30.3 16.3 L70.0 16.3 L109.7 16.3 L110.9 18.1 Z" fill="#eaf2ff"></path>
</svg>