<svg xmlns="http://www.w3.org/2000/svg" viewBox="-3.3 -6.0 146.6 112.0" width="293" height="224">
  <rect x="-3.3" y="-6" width="146.6" height="112" fill="#0a0e14"></rect>
  <path d="M3.3 0.6 L2.7 1.1 L2.7 8.0 L2.7 14.9 L3.6 15.8 L4.6 16.8 L29.4 16.8 L54.1 16.8 L55.5 17.8 L57.0 18.8 L57.1 59.4 L57.4 100.0 L69.5 100.0 L81.6 100.0 L81.9 59.4 L82.1 18.8 L83.5 17.8 L84.9 16.8 L110.3 16.8 L135.6 16.8 L136.4 15.1 L137.3 13.4 L137.1 6.9 L136.8 0.4 L70.1 0.2 L3.5 0.0 L2.9 0.6 Z" fill="#eaf2ff"></path>
</svg>